<?xml version="1.0" encoding="UTF-8" standalone="no"?>
<!-- Created with Inkscape (http://www.inkscape.org/) -->

<svg
   xmlns:dc="http://purl.org/dc/elements/1.1/"
   xmlns:cc="http://creativecommons.org/ns#"
   xmlns:rdf="http://www.w3.org/1999/02/22-rdf-syntax-ns#"
   xmlns:svg="http://www.w3.org/2000/svg"
   xmlns="http://www.w3.org/2000/svg"
   xmlns:sodipodi="http://sodipodi.sourceforge.net/DTD/sodipodi-0.dtd"
   xmlns:inkscape="http://www.inkscape.org/namespaces/inkscape"
   width="210mm"
   height="297mm"
   id="svg2"
   version="1.1"
   inkscape:version="0.48.4 r9939"
   sodipodi:docname="macrodown.svg">
  <defs
     id="defs4" />
  <sodipodi:namedview
     id="base"
     pagecolor="#ffffff"
     bordercolor="#666666"
     borderopacity="1.0"
     inkscape:pageopacity="0.0"
     inkscape:pageshadow="2"
     inkscape:zoom="0.35"
     inkscape:cx="792.58697"
     inkscape:cy="-574.64851"
     inkscape:document-units="px"
     inkscape:current-layer="layer1"
     showgrid="true"
     inkscape:snap-bbox="false"
     showguides="true"
     inkscape:guide-bbox="true"
     inkscape:snap-to-guides="false"
     inkscape:snap-nodes="true"
     inkscape:object-paths="false"
     inkscape:bbox-paths="false"
     inkscape:bbox-nodes="false"
     inkscape:object-nodes="true"
     inkscape:window-width="1366"
     inkscape:window-height="706"
     inkscape:window-x="-8"
     inkscape:window-y="-8"
     inkscape:window-maximized="1">
    <inkscape:grid
       type="xygrid"
       id="grid2985" />
  </sodipodi:namedview>
  <metadata
     id="metadata7">
    <rdf:RDF>
      <cc:Work
         rdf:about="">
        <dc:format>image/svg+xml</dc:format>
        <dc:type
           rdf:resource="http://purl.org/dc/dcmitype/StillImage" />
        <dc:title></dc:title>
      </cc:Work>
    </rdf:RDF>
  </metadata>
  <g
     inkscape:label="レイヤー 1"
     inkscape:groupmode="layer"
     id="layer1">
    <path
       style="fill:#ffffff;fill-opacity:1;fill-rule:nonzero;stroke:#808080;stroke-width:15.99999905;stroke-linecap:round;stroke-linejoin:round;stroke-miterlimit:4;stroke-opacity:1;stroke-dashoffset:0"
       d="m -199.99999,1252.3621 1039.99996,0 0,720 -1039.99996,0 z"
       id="rect3884"
       inkscape:connector-curvature="0"
       inkscape:export-filename="C:\Users\mistpc\mistpc_ocaml\macrodown\logo\g3872.png"
       inkscape:export-xdpi="120"
       inkscape:export-ydpi="120" />
    <path
       style="fill:#ffffff;fill-opacity:1;fill-rule:nonzero;stroke:#808080;stroke-width:15.99999905;stroke-miterlimit:4;stroke-opacity:1;stroke-dasharray:none"
       d="m -160,-147.63781 2520,0 0,751.99997 -2520,0 z"
       id="rect3888"
       inkscape:connector-curvature="0"
       inkscape:export-filename="C:\Users\mistpc\mistpc_ocaml\macrodown\logo\path3785.png"
       inkscape:export-xdpi="36"
       inkscape:export-ydpi="36" />
    <path
       style="fill:#ff0000;fill-opacity:1;fill-rule:nonzero;stroke:none"
       d="M 210 -67.625 C 49.837422 -67.625 -80 62.21242 -80 222.375 C -80 382.53758 49.837422 512.375 210 512.375 C 370.16258 512.375 500 382.53758 500 222.375 C 500 62.21242 370.16258 -67.625 210 -67.625 z M 209.28125 -47.625 C 358.79263 -47.625 480 73.258121 480 222.375 C 480 371.49189 358.79263 492.375 209.28125 492.375 C 59.769883 492.375 -61.4375 371.49189 -61.4375 222.375 C -61.4375 73.258121 59.769883 -47.625 209.28125 -47.625 z "
       id="path3013"
       inkscape:export-filename="C:\Users\mistpc\mistpc_ocaml\macrodown\logo\path3785.png"
       inkscape:export-xdpi="36"
       inkscape:export-ydpi="36" />
    <path
       style="fill:#ffffff;stroke:#ffffff;stroke-width:32;stroke-miterlimit:4;stroke-opacity:1;stroke-dasharray:none"
       d="m 480,-67.637817 0,120.012817 1.4375,0 c -7.55788,11.1812 -13.37337,25.162311 -18.9375,40 l -22.5,60 -45,120 c 0,0 260,-0.0128 260,0 l -45,-120 -22.5,-60 C 580.00304,72.383097 572.05252,53.91473 560,41.8125 l 0,-109.450317 z"
       id="path3799"
       inkscape:connector-curvature="0"
       sodipodi:nodetypes="cccsccccsccc"
       inkscape:export-filename="C:\Users\mistpc\mistpc_ocaml\macrodown\logo\path3785.png"
       inkscape:export-xdpi="36"
       inkscape:export-ydpi="36" />
    <path
       style="fill:#000000;stroke:none"
       d="M 525 27.375 C 490 27.375 475.54956 57.576166 462.5 92.375 L 440 152.375 L 395 272.375 L 470 272.375 L 525 125.71875 L 580 272.375 L 655 272.375 L 610 152.375 L 587.5 92.375 C 574.45044 57.576166 560 27.375 525 27.375 z "
       id="path2985"
       inkscape:export-filename="C:\Users\mistpc\mistpc_ocaml\macrodown\logo\path3785.png"
       inkscape:export-xdpi="36"
       inkscape:export-ydpi="36" />
    <path
       style="fill:#ff0000;stroke:none"
       d="m 70,32.375 22.5,60 L 95,99.03125 0,352.375 c 0,0 90,-0.0128 90,0 l 50,-133.3125 50,133.3125 90,0 -60,-160 -30,-80 -7.5,-20 -7.5,-20 -7.5,-20 c -4.36105,-11.629466 -12.5,-20 -27.5,-20 z"
       id="path2992"
       inkscape:connector-curvature="0"
       sodipodi:nodetypes="ccccccccccccssc"
       inkscape:export-filename="C:\Users\mistpc\mistpc_ocaml\macrodown\logo\path3785.png"
       inkscape:export-xdpi="36"
       inkscape:export-ydpi="36" />
    <path
       style="fill:#ff0000;stroke:none"
       d="m 307.5,52.362182 7.5,19.999999 15,39.999999 30,80 60,159.99999 -90,0 -120,-319.999987 70,0 c 15,0 23.13895,8.370533 27.5,19.999999 z"
       id="path3764"
       inkscape:connector-curvature="0"
       sodipodi:nodetypes="sccccccss"
       inkscape:export-filename="C:\Users\mistpc\mistpc_ocaml\macrodown\logo\path3785.png"
       inkscape:export-xdpi="36"
       inkscape:export-ydpi="36" />
    <path
       style="fill:#000000;stroke:none"
       d="m 645,152.375 c 15,40 45,120 45,120 l 80,0 c 0,0 -22.5,-60 -33.75,-90 -5.625,-15 -10.91732,-31.22816 -16.875,-45 C 708.56342,112.38282 715,97.358978 740,97.362183 l 100,0.01282 0,-65 -115,-0.01282 C 645,32.353265 622.27824,91.783636 645,152.375 z"
       id="path2991"
       inkscape:connector-curvature="0"
       sodipodi:nodetypes="sccsssccss"
       inkscape:export-filename="C:\Users\mistpc\mistpc_ocaml\macrodown\logo\path3785.png"
       inkscape:export-xdpi="36"
       inkscape:export-ydpi="36" />
    <path
       style="fill:#000000;stroke:none"
       d="m 857.5,92.375 c 0,0 -15,40 -22.5,60 -15,40 -45,120 -45,120 l 80,0 C 889.14062,221.33333 908.67264,170.43673 927.42187,119.25 932.94248,104.17833 940,97.364831 960,97.36218 c 20,-0.0027 40,3e-6 40,3e-6 l 0,-65 -60,0 c -40,0 -71.6883,31.181606 -82.5,60.012817 z"
       id="path3000"
       inkscape:connector-curvature="0"
       sodipodi:nodetypes="ssccssccss"
       inkscape:export-filename="C:\Users\mistpc\mistpc_ocaml\macrodown\logo\path3785.png"
       inkscape:export-xdpi="36"
       inkscape:export-ydpi="36" />
    <path
       style="fill:#000000;fill-opacity:1;fill-rule:nonzero;stroke:none"
       d="M 1125 27.375 C 1055.9644 27.375 1000 83.339406 1000 152.375 C 1000 221.41059 1055.9644 277.375 1125 277.375 C 1194.0356 277.375 1250 221.41059 1250 152.375 C 1250 83.339406 1194.0356 27.375 1125 27.375 z M 1125 92.375 C 1158.1371 92.375 1185 119.23791 1185 152.375 C 1185 185.51209 1158.1371 212.375 1125 212.375 C 1091.8629 212.375 1065 185.51209 1065 152.375 C 1065 119.23791 1091.8629 92.375 1125 92.375 z "
       id="path3778"
       inkscape:export-filename="C:\Users\mistpc\mistpc_ocaml\macrodown\logo\path3785.png"
       inkscape:export-xdpi="36"
       inkscape:export-ydpi="36" />
    <path
       transform="matrix(0.89285712,0,0,0.89285715,-4119.2857,-19.389768)"
       d="m 1360,192.36218 a 140,140 0 1 1 -280,0 140,140 0 1 1 280,0 z"
       sodipodi:ry="140"
       sodipodi:rx="140"
       sodipodi:cy="192.36218"
       sodipodi:cx="1220"
       id="path3784"
       style="fill:#000000;fill-opacity:1;fill-rule:nonzero;stroke:none"
       sodipodi:type="arc" />
    <path
       sodipodi:type="arc"
       style="fill:#ffffff;fill-opacity:1;fill-rule:nonzero;stroke:none"
       id="path3786"
       sodipodi:cx="1220"
       sodipodi:cy="192.36218"
       sodipodi:rx="140"
       sodipodi:ry="140"
       d="m 1360,192.36218 a 140,140 0 1 1 -280,0 140,140 0 1 1 280,0 z"
       transform="matrix(0.53571428,0,0,0.53571429,-3683.5714,49.311012)" />
    <path
       transform="matrix(0.35714287,0,0,0.35714286,-3465.7143,83.661402)"
       d="m 1360,192.36218 a 140,140 0 1 1 -280,0 140,140 0 1 1 280,0 z"
       sodipodi:ry="140"
       sodipodi:rx="140"
       sodipodi:cy="192.36218"
       sodipodi:cx="1220"
       id="path3788"
       style="fill:#000000;fill-opacity:1;fill-rule:nonzero;stroke:none"
       sodipodi:type="arc" />
    <path
       transform="matrix(0.89285712,0,0,0.89285715,-4404.2857,-19.389768)"
       d="m 1360,192.36218 a 140,140 0 1 1 -280,0 140,140 0 1 1 280,0 z"
       sodipodi:ry="140"
       sodipodi:rx="140"
       sodipodi:cy="192.36218"
       sodipodi:cx="1220"
       id="path3798"
       style="fill:#000000;fill-opacity:1;fill-rule:nonzero;stroke:none"
       sodipodi:type="arc" />
    <path
       sodipodi:type="arc"
       style="fill:#ffffff;fill-opacity:1;fill-rule:nonzero;stroke:none"
       id="path3800"
       sodipodi:cx="1220"
       sodipodi:cy="192.36218"
       sodipodi:rx="140"
       sodipodi:ry="140"
       d="m 1360,192.36218 a 140,140 0 1 1 -280,0 140,140 0 1 1 280,0 z"
       transform="matrix(0.46428573,0,0,0.46428571,-3881.4286,63.051169)" />
    <path
       transform="matrix(0.2857143,0,0,0.28571428,-3663.5714,97.401559)"
       d="m 1360,192.36218 a 140,140 0 1 1 -280,0 140,140 0 1 1 280,0 z"
       sodipodi:ry="140"
       sodipodi:rx="140"
       sodipodi:cy="192.36218"
       sodipodi:cx="1220"
       id="path3802"
       style="fill:#ff0000;fill-opacity:1;fill-rule:nonzero;stroke:none"
       sodipodi:type="arc" />
    <path
       style="fill:#ff0000;stroke:none"
       d="m 1305,72.375 -15,40 -30,80 -30,80 -30,80 40,0 40,0 160,0 c 50,-0.0128 65.9247,-37.5341 50,-80 l -30,-80 -30,-80 -15,-40 c -11.4114,-30.430333 -25,-45.012817 -55,-45.012817 -30,0 -43.5709,14.535235 -55,45.012817 z m 55,66.65625 27.8125,74.17187 13.9063,37.08594 6.9531,18.54297 c 3.7033,9.87614 1.3281,18.52803 -13.6719,18.53015 l -90.625,0.0128 z"
       id="path3804"
       inkscape:connector-curvature="0"
       sodipodi:nodetypes="scccccccsccssscccsscc"
       inkscape:export-filename="C:\Users\mistpc\mistpc_ocaml\macrodown\logo\path3785.png"
       inkscape:export-xdpi="36"
       inkscape:export-ydpi="36" />
    <path
       style="fill:#000000;stroke:none"
       d="m 1710,37.375 67.5,180 11.25,30 c 9.0833,24.22209 16.25,29.96875 31.25,29.96875 15,0 22.2525,-5.99226 30,-26.65625 l 5.625,-14.96875 -74.4062,-198.34375 -71.2188,0 z"
       id="path3810"
       inkscape:connector-curvature="0"
       inkscape:export-filename="C:\Users\mistpc\mistpc_ocaml\macrodown\logo\path3785.png"
       inkscape:export-xdpi="36"
       inkscape:export-ydpi="36" />
    <path
       id="path3817"
       d="m -1010,32.375 90,240 80,0 -40,-106.6875 -50,-133.3125 -80,0 z m 180,0 -10,26.65625 40,106.65625 50,-133.3125 -80,0 z"
       style="fill:#000000;stroke:none"
       inkscape:connector-curvature="0" />
    <path
       inkscape:connector-curvature="0"
       id="path3819"
       d="m -1160,32.362183 -90,239.999997 80,0 50,-133.3125 50,133.3125 80,0 -90,-239.999997 -80,0 z"
       style="fill:#000000;stroke:none" />
    <path
       style="fill:#000000;fill-opacity:1;fill-rule:nonzero;stroke:none"
       d="M 1595 27.375 C 1525.9644 27.375 1470 83.339406 1470 152.375 C 1470 221.41059 1525.9644 277.375 1595 277.375 C 1664.0356 277.375 1720 221.41059 1720 152.375 C 1720 83.339406 1664.0356 27.375 1595 27.375 z M 1595 92.375 C 1628.1371 92.375 1655 119.23791 1655 152.375 C 1655 185.51209 1628.1371 212.375 1595 212.375 C 1561.8629 212.375 1535 185.51209 1535 152.375 C 1535 119.23791 1561.8629 92.375 1595 92.375 z "
       id="path3821"
       inkscape:export-filename="C:\Users\mistpc\mistpc_ocaml\macrodown\logo\path3785.png"
       inkscape:export-xdpi="36"
       inkscape:export-ydpi="36" />
    <path
       sodipodi:nodetypes="cccccc"
       inkscape:connector-curvature="0"
       id="path3825"
       d="m -1600,32.375 90,240 80,0 -40,-106.6875 -50,-133.3125 z"
       style="fill:#000000;stroke:none" />
    <path
       inkscape:connector-curvature="0"
       id="path3827"
       d="m -1380,272.36216 -90,-239.999977 80,0 50,133.312477 50,-133.312477 80,0 -90,239.999977 -80,0 z"
       style="fill:#000000;stroke:none" />
    <path
       sodipodi:nodetypes="cccc"
       inkscape:connector-curvature="0"
       id="path3841"
       d="m 1825,37.349366 55,146.652314 55,-146.652314 z"
       style="fill:#000000;stroke:none"
       inkscape:export-filename="C:\Users\mistpc\mistpc_ocaml\macrodown\logo\path3785.png"
       inkscape:export-xdpi="36"
       inkscape:export-ydpi="36" />
    <path
       style="fill:#000000;fill-opacity:1;fill-rule:nonzero;stroke:none"
       d="m 2050,117.36218 0,155 70,0 0,-150 c 0,-15 10,-26.999994 25,-29.999994 10,-2 30,-2 40,0 15,3 25,14.999994 25,29.999994 l 0,150 70,0 0,-155 c 0,-44.999997 -34.9984,-80.012611 -75,-85.012808 -23.9984,-2.999803 -56.0016,-2.999806 -80,-3e-6 -40.0016,5.000197 -75,40.012814 -75,85.012811 z"
       id="rect3843"
       inkscape:connector-curvature="0"
       sodipodi:nodetypes="cccsssscccssc"
       inkscape:export-filename="C:\Users\mistpc\mistpc_ocaml\macrodown\logo\path3785.png"
       inkscape:export-xdpi="36"
       inkscape:export-ydpi="36" />
    <path
       style="fill:#000000;stroke:none"
       d="m 1980,37.34375 -75,200 5,13.34375 c 7.7475,20.66399 15,26.65625 30,26.65625 15,0 22.1667,-5.77791 31.25,-30 l 11.25,-30 67.5,-180 -70,0 z"
       id="path3850"
       inkscape:connector-curvature="0"
       inkscape:export-filename="C:\Users\mistpc\mistpc_ocaml\macrodown\logo\path3785.png"
       inkscape:export-xdpi="36"
       inkscape:export-ydpi="36" />
    <path
       id="path3853"
       d="m -1910,32.375 30,80 -90,240 80,0 50,-133.3125 50,133.3125 80,0 -120,-320 -80,0 z"
       style="fill:#ff0000;stroke:none"
       inkscape:connector-curvature="0" />
    <path
       inkscape:connector-curvature="0"
       id="path3855"
       d="m -1690,32.362183 120,319.999987 -80,0 -120,-319.999987 z"
       style="fill:#ff0000;stroke:none" />
    <path
       id="path3857"
       d="m -2255.625,32.375 -120,320 40,0 40,0 160,0 20,0 60,0 -120,-320 -80,0 z m 40,106.65625 55.625,148.34375 -111.25,0 55.625,-148.34375 z"
       style="fill:#ff0000;stroke:none"
       inkscape:connector-curvature="0" />
    <path
       sodipodi:nodetypes="ccccccccscccccccsscc"
       inkscape:connector-curvature="0"
       id="path3859"
       d="m -2704.375,32.375 -30,80 -30,80 -30,80 -30,80 40,0 40,0 160,0 c 50,-0.0128 65.9247,-37.5341 50,-80 l -30,-80 -30,-80 -30,-80 z m 40,106.65625 27.8125,74.17187 13.9063,37.08594 6.9531,18.54297 c 3.7033,9.87614 1.3281,18.52803 -13.6719,18.53015 l -90.625,0.0128 z"
       style="fill:#ff0000;stroke:none" />
    <path
       sodipodi:nodetypes="sscccccssss"
       inkscape:connector-curvature="0"
       id="path3875"
       d="m -2112.5,92.362182 c 0,0 -15,39.999998 -22.5,59.999998 -15,40 -45,120 -45,120 l 80,0 50,-133.3125 50,133.3125 80,0 c 0,0 -30,-80 -45,-120 -7.5,-20 -22.5,-59.999998 -22.5,-59.999998 -13.0496,-34.798834 -27.5,-64.999999 -62.5,-64.999999 -35,0 -49.4504,30.201165 -62.5,64.999999 z"
       style="fill:#000000;stroke:none" />
    <path
       transform="matrix(0.89285712,0,0,0.89285715,-3509.2857,-19.389768)"
       d="m 1360,192.36218 a 140,140 0 1 1 -280,0 140,140 0 1 1 280,0 z"
       sodipodi:ry="140"
       sodipodi:rx="140"
       sodipodi:cy="192.36218"
       sodipodi:cx="1220"
       id="path3891"
       style="fill:#000000;fill-opacity:1;fill-rule:nonzero;stroke:none"
       sodipodi:type="arc" />
    <path
       sodipodi:type="arc"
       style="fill:#ffffff;fill-opacity:1;fill-rule:nonzero;stroke:none"
       id="path3893"
       sodipodi:cx="1220"
       sodipodi:cy="192.36218"
       sodipodi:rx="140"
       sodipodi:ry="140"
       d="m 1360,192.36218 a 140,140 0 1 1 -280,0 140,140 0 1 1 280,0 z"
       transform="matrix(0.42857141,0,0,0.42857143,-2942.8571,69.921247)" />
    <path
       style="fill:#ffffff;stroke:none"
       d="M 107.5 -107.625 L 344.5 524.375 L 394.5 524.375 C 341.23056 382.3196 229.71093 84.935231 157.5 -107.625 L 107.5 -107.625 z "
       id="path3785"
       inkscape:export-xdpi="36"
       inkscape:export-ydpi="36" />
    <path
       sodipodi:nodetypes="ccsssccc"
       inkscape:connector-curvature="0"
       id="path3813"
       d="m -790,37.362183 c 0,0 45,119.999997 67.5,179.999997 l 11.25,30 c 9.0833,24.22209 16.25,29.98718 31.25,29.98718 15,0 22.2525,-5.99507 30,-26.65906 l 10,-26.67187 C -663.3256,161.79678 -710,37.349366 -710,37.362183 z"
       style="fill:#000000;stroke:none" />
    <path
       style="fill:#000000;stroke:none"
       d="m -675,37.349366 55,146.652314 55,-146.652314 z"
       id="path3815"
       inkscape:connector-curvature="0"
       sodipodi:nodetypes="cccc" />
    <path
       style="fill:#000000;stroke:none"
       d="m -450,37.349366 c 0,0 -45,119.999994 -67.5,179.999994 l -11.25,30 c -9.0833,24.22209 -16.25,30 -31.25,30 -15,0 -22.2525,-6.00789 -30,-26.67188 l -10,-26.67187 c 23.3256,-62.22165 70,-186.669061 70,-186.656244 z"
       id="path3818"
       inkscape:connector-curvature="0"
       sodipodi:nodetypes="ccsssccc" />
    <path
       sodipodi:nodetypes="cccc"
       inkscape:connector-curvature="0"
       id="path3820"
       d="M -718.779,37.349366 -619.3896,302.36218 -520,37.349366 z"
       style="fill:#008000;stroke:none" />
    <path
       style="fill:#000080;fill-opacity:1;fill-rule:nonzero;stroke:none"
       d="m 320,1312.3489 c -12.40549,0 -24.62961,0.8008 -36.625,2.3124 2.34188,6.245 4.78778,12.8196 7.1875,19.2188 9.43632,-0.9923 19.01879,-1.5312 28.71875,-1.5312 149.51138,0 270.71875,120.8831 270.71875,270 0,91.6157 -45.75932,172.561 -115.71875,221.375 2.05315,5.4751 5.34943,14.265 7.3125,19.5 C 559.04926,1791.1582 610,1702.6929 610,1602.3489 c 0,-160.1625 -129.83742,-290 -290,-290 z"
       id="path3832"
       inkscape:connector-curvature="0"
       sodipodi:nodetypes="sccssccss" />
    <path
       inkscape:export-ydpi="36"
       inkscape:export-xdpi="36"
       inkscape:export-filename="C:\Users\mistpc\mistpc_ocaml\macrodown\logo\path3785.png"
       sodipodi:nodetypes="sccccccss"
       inkscape:connector-curvature="0"
       id="path3836"
       d="m 417.5,1432.3494 7.5,20 15,40 30,80 60,160 -90,0 -120,-320 70,0 c 15,0 23.13895,8.3706 27.5,20 z"
       style="fill:#000080;stroke:none" />
    <path
       inkscape:export-ydpi="36"
       inkscape:export-xdpi="36"
       inkscape:export-filename="C:\Users\mistpc\mistpc_ocaml\macrodown\logo\path3785.png"
       sodipodi:nodetypes="ccccccccccccssc"
       inkscape:connector-curvature="0"
       id="path3834"
       d="m 180,1412.3622 22.5,60 2.5,6.6563 -95,253.3437 c 0,0 90,-0.013 90,0 l 50,-133.3125 50,133.3125 90,0 -60,-160 -30,-80 -7.5,-20 -7.5,-20 -7.5,-20 c -4.36105,-11.6294 -12.5,-20 -27.5,-20 z"
       style="fill:#ff0000;stroke:none" />
    <path
       id="path3842"
       d="M 237.03125,1324.4113 C 117.29411,1360.0957 30,1471.0158 30,1602.3489 c 0,160.1625 129.83742,290 290,290 42.90061,0 83.6133,-9.3128 120.25,-26.0313 l -7.125,-18.9375 c -34.60897,16.0218 -73.17739,24.9688 -113.84375,24.9688 -149.51137,0 -270.71875,-120.8832 -270.71875,-270 0,-123.0545 82.53271,-226.8717 195.40625,-259.4063 z"
       style="fill:#ff0000;fill-opacity:1;fill-rule:nonzero;stroke:none"
       inkscape:connector-curvature="0"
       sodipodi:nodetypes="cssccsscc" />
    <g
       style="font-size:40px;font-style:normal;font-weight:normal;line-height:125%;letter-spacing:0px;word-spacing:0px;fill:#000000;fill-opacity:1;stroke:none;font-family:Sans"
       id="text3854">
      <path
         d="m -138.28683,1809.5051 0,-18.3203 -3.00782,0 0,-2.8906 3.00782,0 0,-2.5391 c -1e-5,-1.7447 0.2246,-3.1152 0.67382,-4.1113 0.44922,-0.9961 1.18489,-1.8229 2.20703,-2.4805 1.02213,-0.6575 2.36002,-0.9863 4.01368,-0.9863 1.30207,0 2.77342,0.2149 4.41406,0.6445 l 0,3.0469 c -1.73179,-0.5338 -3.1185,-0.8007 -4.16016,-0.8008 -0.59897,10e-5 -1.14584,0.094 -1.64062,0.2832 -0.4948,0.1889 -0.89194,0.5241 -1.19141,1.0059 -0.29949,0.4818 -0.44923,1.4779 -0.44922,2.9883 l 0,2.9492 5.29297,0 0,2.8906 -5.29297,0 0,18.3203 z"
         style="font-variant:normal;font-stretch:normal;fill:#ff0000;font-family:Lucida Sans;-inkscape-font-specification:Lucida Sans"
         id="path3898" />
      <path
         d="m -111.06027,1809.5051 0,-3.9843 c -0.9896,1.4322 -2.12892,2.5358 -3.41797,3.3105 -1.28908,0.7747 -2.63022,1.1621 -4.02344,1.1621 -1.78386,0 -3.23894,-0.5697 -4.36523,-1.709 -1.12631,-1.1393 -1.68946,-2.7246 -1.68946,-4.7558 l 0,-15.2344 3.84766,0 0,13.9844 c -1e-5,1.4713 0.1302,2.4414 0.39063,2.9101 0.2604,0.4688 0.62499,0.8334 1.09375,1.0938 0.46874,0.2604 0.97655,0.3906 1.52343,0.3906 0.93749,0 1.95637,-0.293 3.05664,-0.8789 1.10025,-0.5859 2.29491,-1.8359 3.58399,-3.75 l 0,-13.75 3.84765,0 0,21.2109 z"
         style="font-variant:normal;font-stretch:normal;fill:#ff0000;font-family:Lucida Sans;-inkscape-font-specification:Lucida Sans"
         id="path3900" />
      <path
         d="m -99.478241,1809.5051 0,-21.2109 3.847656,0 0,3.9844 c 0.976554,-1.4193 2.112621,-2.5163 3.408203,-3.2911 1.295561,-0.7747 2.639961,-1.162 4.033204,-1.1621 1.796858,10e-5 3.255189,0.5697 4.375,1.709 1.119771,1.1394 1.679666,2.7181 1.679687,4.7364 l 0,15.2343 -3.847656,0 0,-13.9843 c -1.8e-5,-1.4714 -0.130226,-2.4414 -0.390625,-2.9102 -0.260434,-0.4687 -0.625017,-0.8301 -1.09375,-1.084 -0.468766,-0.2539 -0.970067,-0.3808 -1.503906,-0.3808 -0.950535,0 -1.975924,0.2929 -3.076172,0.8789 -1.100271,0.5859 -2.294931,1.8359 -3.583985,3.75 l 0,13.7304 z"
         style="font-variant:normal;font-stretch:normal;fill:#ff0000;font-family:Lucida Sans;-inkscape-font-specification:Lucida Sans"
         id="path3902" />
      <path
         d="m -59.907928,1808.8606 c -2.486996,0.7552 -4.635431,1.1328 -6.445313,1.1328 -1.888031,0 -3.6198,-0.5111 -5.195312,-1.5332 -1.575527,-1.0221 -2.763677,-2.3665 -3.564454,-4.0332 -0.800783,-1.6667 -1.201174,-3.5482 -1.201171,-5.6445 -3e-6,-3.125 0.865882,-5.7324 2.597656,-7.8223 1.731764,-2.0898 4.407543,-3.1347 8.027344,-3.1348 1.666652,10e-5 3.515608,0.2279 5.546875,0.6836 l 0,3.2227 c -2.174496,-0.638 -3.945327,-0.957 -5.3125,-0.957 -2.16147,0 -3.789072,0.804 -4.882813,2.4121 -1.093757,1.6081 -1.640631,3.5124 -1.640625,5.7129 -6e-6,2.3828 0.615227,4.3099 1.845703,5.7812 1.230459,1.4714 2.828765,2.207 4.794922,2.207 1.757798,0 3.567692,-0.4492 5.429688,-1.3476 z"
         style="font-variant:normal;font-stretch:normal;fill:#ff0000;font-family:Lucida Sans;-inkscape-font-specification:Lucida Sans"
         id="path3904" />
      <path
         d="m -44.712616,1809.5051 c -1.184908,0.3255 -2.213553,0.4883 -3.085937,0.4883 -1.90105,0 -3.411466,-0.5501 -4.53125,-1.6504 -1.119797,-1.1002 -1.679692,-2.666 -1.679688,-4.6972 l 0,-12.461 -2.65625,0 0,-2.8906 2.65625,0 0,-3.8477 3.847656,-0.3711 0,4.2188 5.546875,0 0,2.8906 -5.546875,0 0,11.7578 c -8e-6,1.4844 0.28645,2.5489 0.859375,3.1934 0.572908,0.6445 1.484365,0.9668 2.734375,0.9668 0.507801,0 1.12629,-0.085 1.855469,-0.2539 z"
         style="font-variant:normal;font-stretch:normal;fill:#ff0000;font-family:Lucida Sans;-inkscape-font-specification:Lucida Sans"
         id="path3906" />
      <path
         d="m -39.165741,1809.5051 0,-21.2109 3.847656,0 0,21.2109 z m 0,-25.0586 0,-3.8476 3.847656,0 0,3.8476 z"
         style="font-variant:normal;font-stretch:normal;fill:#ff0000;font-family:Lucida Sans;-inkscape-font-specification:Lucida Sans"
         id="path3908" />
      <path
         d="m -19.165741,1809.9934 c -2.018239,0 -3.772795,-0.4134 -5.263672,-1.2402 -1.490891,-0.8268 -2.67253,-2.1289 -3.544922,-3.9063 -0.872398,-1.7773 -1.308596,-3.7597 -1.308593,-5.9472 -3e-6,-2.0573 0.397132,-3.9681 1.191406,-5.7325 0.794266,-1.7643 1.949864,-3.0956 3.466797,-3.9941 1.516918,-0.8984 3.336578,-1.3476 5.458984,-1.3477 2.018215,10e-5 3.776026,0.4102 5.273438,1.2305 1.497376,0.8203 2.679016,2.1224 3.544921,3.9063 0.8658639,1.7838 1.2988061,3.763 1.2988285,5.9375 -2.24e-5,2.0833 -0.4036678,4.0071 -1.2109375,5.7714 -0.807312,1.7644 -1.96291,3.0925 -3.466797,3.9844 -1.503922,0.8919 -3.317072,1.3379 -5.439453,1.3379 z m 0,-2.8906 c 1.914048,0 3.398422,-0.7129 4.453125,-2.1387 1.05467,-1.4258 1.582013,-3.4472 1.582031,-6.0644 -1.8e-5,-2.6302 -0.530616,-4.6517 -1.591797,-6.0645 -1.061213,-1.4127 -2.542331,-2.1191 -4.443359,-2.1191 -1.901052,0 -3.378915,0.7064 -4.433594,2.1191 -1.054694,1.4128 -1.582037,3.4343 -1.582031,6.0645 -6e-6,2.6172 0.527337,4.6386 1.582031,6.0644 1.054679,1.4258 2.532542,2.1387 4.433594,2.1387 z"
         style="font-variant:normal;font-stretch:normal;fill:#ff0000;font-family:Lucida Sans;-inkscape-font-specification:Lucida Sans"
         id="path3910" />
      <path
         d="m -2.993866,1809.5051 0,-21.2109 3.84765628,0 0,3.9844 c 0.97655382,-1.4193 2.11262042,-2.5163 3.40820312,-3.2911 1.2955605,-0.7747 2.6399602,-1.162 4.0332031,-1.1621 1.7968585,10e-5 3.2551895,0.5697 4.3750005,1.709 1.119771,1.1394 1.679666,2.7181 1.679687,4.7364 l 0,15.2343 -3.847656,0 0,-13.9843 c -1.8e-5,-1.4714 -0.130226,-2.4414 -0.390625,-2.9102 -0.2604336,-0.4687 -0.6250165,-0.8301 -1.0937502,-1.084 -0.4687654,-0.2539 -0.970067,-0.3808 -1.5039063,-0.3808 -0.9505342,0 -1.9759238,0.2929 -3.0761718,0.8789 -1.1002706,0.5859 -2.2949309,1.8359 -3.58398442,3.75 l 0,13.7304 z"
         style="font-variant:normal;font-stretch:normal;fill:#ff0000;font-family:Lucida Sans;-inkscape-font-specification:Lucida Sans"
         id="path3912" />
      <path
         d="m 32.787384,1806.8098 c -1.145847,1.0547 -2.275403,1.849 -3.388672,2.3828 -1.113291,0.5339 -2.203785,0.8008 -3.271484,0.8008 -1.497403,0 -2.89063,-0.4948 -4.179688,-1.4844 -1.289065,-0.9895 -1.933595,-2.4349 -1.933593,-4.3359 -2e-6,-2.0833 0.898434,-3.8053 2.695312,-5.166 1.796869,-1.3607 4.667959,-2.041 8.613281,-2.041 l 0.898438,0 0,-2.5586 c -1.4e-5,-1.0156 -0.136733,-1.7546 -0.410156,-2.2168 -0.273452,-0.4622 -0.699883,-0.8236 -1.279297,-1.084 -0.579439,-0.2604 -1.29884,-0.3906 -2.158203,-0.3906 -1.992196,0 -4.166673,0.625 -6.523438,1.875 l 0,-3.1836 c 2.591139,-1.0547 5.032543,-1.582 7.324219,-1.5821 1.249987,10e-5 2.399075,0.1986 3.447265,0.5957 1.048162,0.3972 1.88475,1.0222 2.509766,1.875 0.624982,0.8529 0.937482,2.2234 0.9375,4.1114 l 0,9.6093 c -1.8e-5,1.0678 0.08462,1.7872 0.253906,2.1582 0.169253,0.3711 0.406883,0.6543 0.712891,0.8497 0.30597,0.1953 0.660788,0.2929 1.064453,0.2929 0.169251,0 0.416646,-0.026 0.742188,-0.078 l 0.273437,2.1289 c -0.872416,0.4167 -1.835957,0.625 -2.890625,0.625 -0.703142,0 -1.380225,-0.2279 -2.03125,-0.6836 -0.651057,-0.4557 -1.119807,-1.289 -1.40625,-2.5 z m -0.566406,-2.0898 0,-5.4883 -1.230469,-0.039 c -2.01824,0 -3.710947,0.3907 -5.078125,1.1719 -1.367194,0.7813 -2.050787,1.8425 -2.050781,3.1836 -6e-6,0.9245 0.33528,1.7057 1.005859,2.3437 0.670566,0.6381 1.45507,0.9571 2.353516,0.9571 0.807281,0 1.627593,-0.1791 2.460937,-0.5371 0.833321,-0.3581 1.679674,-0.8887 2.539063,-1.5918 z"
         style="font-variant:normal;font-stretch:normal;fill:#ff0000;font-family:Lucida Sans;-inkscape-font-specification:Lucida Sans"
         id="path3914" />
      <path
         d="m 43.959259,1809.5051 0,-30.8398 3.847656,0 0,30.8398 z"
         style="font-variant:normal;font-stretch:normal;fill:#ff0000;font-family:Lucida Sans;-inkscape-font-specification:Lucida Sans"
         id="path3916" />
      <path
         d="m -139.00949,1867.22 0,-28.9258 3.84766,0 0,3.9844 c 0.79426,-1.4844 1.78058,-2.5977 2.95898,-3.3399 1.17837,-0.7421 2.55532,-1.1132 4.13086,-1.1133 2.61717,10e-5 4.64191,0.9636 6.07422,2.8907 1.43227,1.9271 2.14841,4.4401 2.14844,7.539 -3e-5,2.0183 -0.33206,3.9388 -0.9961,5.7617 -0.66408,1.823 -1.69598,3.2748 -3.0957,4.3555 -1.39976,1.0807 -2.98504,1.6211 -4.75586,1.6211 -0.70314,0 -1.63087,-0.1042 -2.7832,-0.3125 -1.15236,-0.2083 -2.37957,-1.0677 -3.68164,-2.5781 l 0,10.1172 z m 3.84766,-12.7735 c 1.31509,1.1719 2.36327,1.9076 3.14453,2.2071 0.78123,0.2994 1.62108,0.4492 2.51953,0.4492 1.888,0 3.28449,-0.7943 4.18945,-2.3828 0.90493,-1.5886 1.3574,-3.6133 1.35742,-6.0742 -2e-5,-2.2917 -0.40041,-4.1081 -1.20117,-5.4493 -0.8008,-1.3411 -2.04103,-2.0117 -3.7207,-2.0117 -1.06772,0 -2.12567,0.2897 -3.17383,0.8692 -1.04819,0.5794 -2.0866,1.455 -3.11523,2.6269 z"
         style="font-variant:normal;font-stretch:normal;fill:#ff0000;font-family:Lucida Sans;-inkscape-font-specification:Lucida Sans"
         id="path3918" />
      <path
         d="m -113.85324,1859.5051 0,-21.2109 3.84766,0 0,3.9844 c 0.72915,-1.4193 1.67642,-2.5163 2.84179,-3.2911 1.16536,-0.7747 2.43163,-1.162 3.79883,-1.1621 0.39061,10e-5 0.80077,0.033 1.23047,0.098 l 0,3.5937 c -0.65106,-0.2213 -1.23699,-0.332 -1.75781,-0.332 -1.21095,0 -2.32749,0.3614 -3.34961,1.084 -1.02215,0.7227 -1.94337,1.8067 -2.76367,3.252 l 0,13.9843 z"
         style="font-variant:normal;font-stretch:normal;fill:#ff0000;font-family:Lucida Sans;-inkscape-font-specification:Lucida Sans"
         id="path3920" />
      <path
         d="m -89.009491,1859.9934 c -2.018239,0 -3.772795,-0.4134 -5.263672,-1.2402 -1.490891,-0.8268 -2.67253,-2.1289 -3.544922,-3.9063 -0.872398,-1.7773 -1.308596,-3.7597 -1.308593,-5.9472 -3e-6,-2.0573 0.397132,-3.9681 1.191406,-5.7325 0.794266,-1.7643 1.949864,-3.0956 3.466797,-3.9941 1.516918,-0.8984 3.336578,-1.3476 5.458984,-1.3477 2.018215,10e-5 3.776026,0.4102 5.273438,1.2305 1.497376,0.8203 2.679016,2.1224 3.544921,3.9063 0.865864,1.7838 1.298806,3.763 1.298829,5.9375 -2.3e-5,2.0833 -0.403668,4.0071 -1.210938,5.7714 -0.807312,1.7644 -1.96291,3.0925 -3.466797,3.9844 -1.503922,0.8919 -3.317072,1.3379 -5.439453,1.3379 z m 0,-2.8906 c 1.914048,0 3.398422,-0.7129 4.453125,-2.1387 1.05467,-1.4258 1.582013,-3.4472 1.582031,-6.0644 -1.8e-5,-2.6302 -0.530616,-4.6517 -1.591797,-6.0645 -1.061213,-1.4127 -2.542331,-2.1191 -4.443359,-2.1191 -1.901052,0 -3.378915,0.7064 -4.433594,2.1191 -1.054694,1.4128 -1.582037,3.4343 -1.582031,6.0645 -6e-6,2.6172 0.527337,4.6386 1.582031,6.0644 1.054679,1.4258 2.532542,2.1387 4.433594,2.1387 z"
         style="font-variant:normal;font-stretch:normal;fill:#ff0000;font-family:Lucida Sans;-inkscape-font-specification:Lucida Sans"
         id="path3922" />
      <path
         d="m -72.759491,1866.5559 0.449219,-3.3398 c 2.226556,1.0546 4.427074,1.582 6.601562,1.582 2.434883,0 4.124334,-0.6218 5.06836,-1.8652 0.943993,-1.2435 1.415998,-2.92 1.416015,-5.0293 l 0,-3.3399 c -0.559912,1.1719 -1.432307,2.2071 -2.617187,3.1055 -1.18491,0.8984 -2.630221,1.3476 -4.335938,1.3476 -2.903653,0 -5.019536,-1.0449 -6.347656,-3.1347 -1.328128,-2.0899 -1.99219,-4.4629 -1.992187,-7.1192 -3e-6,-2.0182 0.390622,-3.9029 1.171875,-5.6543 0.781245,-1.7512 1.865229,-3.0696 3.251953,-3.955 1.38671,-0.8854 2.971995,-1.3281 4.755859,-1.3282 0.794259,10e-5 1.53319,0.091 2.216797,0.2735 0.683579,0.1823 1.3216,0.4557 1.914062,0.8203 0.592432,0.3646 1.253239,0.9636 1.982422,1.7969 l 0,-2.4219 3.867188,0 0,15.4297 c -2.2e-5,4.4922 -0.37437,7.5651 -1.123047,9.2187 -0.748717,1.6537 -1.920591,2.8581 -3.515625,3.6133 -1.595067,0.7552 -3.492852,1.1328 -5.693359,1.1328 -0.716157,0 -1.48764,-0.039 -2.314454,-0.1172 -0.82683,-0.078 -1.562507,-0.179 -2.207031,-0.3027 -0.644537,-0.1237 -1.494145,-0.3613 -2.548828,-0.7129 z m 13.535156,-14.3945 0,-8.8086 c -0.84637,-0.8854 -1.728531,-1.5462 -2.646484,-1.9824 -0.917983,-0.4362 -1.878268,-0.6543 -2.880859,-0.6543 -1.70574,0 -3.076181,0.6868 -4.111329,2.0605 -1.035163,1.3737 -1.55274,3.3627 -1.552734,5.9668 -6e-6,2.0443 0.384108,3.7077 1.152344,4.9902 0.768221,1.2826 2.01822,1.9239 3.75,1.9239 1.119779,0 2.203762,-0.293 3.251953,-0.8789 1.048162,-0.586 2.06053,-1.4584 3.037109,-2.6172 z"
         style="font-variant:normal;font-stretch:normal;fill:#ff0000;font-family:Lucida Sans;-inkscape-font-specification:Lucida Sans"
         id="path3924" />
      <path
         d="m -47.915741,1859.5051 0,-21.2109 3.847656,0 0,3.9844 c 0.729159,-1.4193 1.676423,-2.5163 2.841797,-3.2911 1.165353,-0.7747 2.431628,-1.162 3.798828,-1.1621 0.390611,10e-5 0.800766,0.033 1.230469,0.098 l 0,3.5937 c -0.651057,-0.2213 -1.236993,-0.332 -1.757812,-0.332 -1.210951,0 -2.327486,0.3614 -3.34961,1.084 -1.022145,0.7227 -1.943368,1.8067 -2.763672,3.252 l 0,13.9843 z"
         style="font-variant:normal;font-stretch:normal;fill:#ff0000;font-family:Lucida Sans;-inkscape-font-specification:Lucida Sans"
         id="path3926" />
      <path
         d="m -20.571991,1856.8098 c -1.145847,1.0547 -2.275403,1.849 -3.388672,2.3828 -1.113291,0.5339 -2.203785,0.8008 -3.271484,0.8008 -1.497403,0 -2.89063,-0.4948 -4.179688,-1.4844 -1.289065,-0.9895 -1.933595,-2.4349 -1.933593,-4.3359 -2e-6,-2.0833 0.898434,-3.8053 2.695312,-5.166 1.796869,-1.3607 4.667959,-2.041 8.613281,-2.041 l 0.898438,0 0,-2.5586 c -1.4e-5,-1.0156 -0.136733,-1.7546 -0.410156,-2.2168 -0.273452,-0.4622 -0.699883,-0.8236 -1.279297,-1.084 -0.579439,-0.2604 -1.29884,-0.3906 -2.158203,-0.3906 -1.992196,0 -4.166673,0.625 -6.523438,1.875 l 0,-3.1836 c 2.591139,-1.0547 5.032543,-1.582 7.324219,-1.5821 1.249987,10e-5 2.399075,0.1986 3.447265,0.5957 1.048162,0.3972 1.88475,1.0222 2.509766,1.875 0.624982,0.8529 0.937482,2.2234 0.9375,4.1114 l 0,9.6093 c -1.8e-5,1.0678 0.08462,1.7872 0.253906,2.1582 0.169253,0.3711 0.406883,0.6543 0.712891,0.8497 0.30597,0.1953 0.660788,0.2929 1.064453,0.2929 0.169251,0 0.416646,-0.026 0.742188,-0.078 l 0.273437,2.1289 c -0.872416,0.4167 -1.835957,0.625 -2.890625,0.625 -0.703142,0 -1.380225,-0.2279 -2.03125,-0.6836 -0.651057,-0.4557 -1.119807,-1.289 -1.40625,-2.5 z m -0.566406,-2.0898 0,-5.4883 -1.230469,-0.039 c -2.01824,0 -3.710947,0.3907 -5.078125,1.1719 -1.367194,0.7813 -2.050787,1.8425 -2.050781,3.1836 -6e-6,0.9245 0.33528,1.7057 1.005859,2.3437 0.670566,0.6381 1.45507,0.9571 2.353516,0.9571 0.807281,0 1.627593,-0.1791 2.460937,-0.5371 0.833321,-0.3581 1.679674,-0.8887 2.539063,-1.5918 z"
         style="font-variant:normal;font-stretch:normal;fill:#ff0000;font-family:Lucida Sans;-inkscape-font-specification:Lucida Sans"
         id="path3928" />
      <path
         d="m -9.400116,1859.5051 0,-21.2109 3.8476563,0 0,3.9844 c 0.7812415,-1.237 1.7805895,-2.2884 2.9980469,-3.1543 1.217436,-0.8659 2.62693976,-1.2988 4.2285156,-1.2989 0.9244633,10e-5 1.7317542,0.1498 2.421875,0.4493 0.6900861,0.2995 1.3150855,0.7226 1.875,1.2695 0.559876,0.5469 1.0611776,1.4583 1.5039062,2.7344 0.7812285,-1.2761 1.7740661,-2.3405 2.978516,-3.1934 1.204402,-0.8528 2.581354,-1.2793 4.130859,-1.2793 1.510387,0 2.871063,0.4688 4.082031,1.4063 1.210905,0.9375 1.816373,2.5586 1.816407,4.8632 l 0,15.4297 -3.867188,0 0,-14.8242 c -3e-5,-1.4062 -0.296253,-2.3633 -0.888672,-2.8711 -0.592476,-0.5078 -1.253283,-0.7617 -1.982422,-0.7617 -0.911484,0 -1.858749,0.2832 -2.841797,0.8496 -0.9830957,0.5664 -2.1256727,1.696 -3.427734,3.3887 l 0,14.2187 -3.8671875,0 0,-14.8242 c -1.68e-5,-1.4192 -0.2994957,-2.3828 -0.8984375,-2.8906 -0.5989737,-0.5078 -1.2760563,-0.7617 -2.03124997,-0.7617 -0.92449216,0 -1.85873603,0.2799 -2.80273433,0.8398 -0.9440206,0.5599 -2.0865976,1.6992 -3.4277344,3.418 l 0,14.2187 z"
         style="font-variant:normal;font-stretch:normal;fill:#ff0000;font-family:Lucida Sans;-inkscape-font-specification:Lucida Sans"
         id="path3930" />
      <path
         d="m 27.943634,1859.5051 0,-21.2109 3.847656,0 0,3.9844 c 0.781242,-1.237 1.78059,-2.2884 2.998047,-3.1543 1.217436,-0.8659 2.62694,-1.2988 4.228516,-1.2989 0.924463,10e-5 1.731754,0.1498 2.421875,0.4493 0.690086,0.2995 1.315085,0.7226 1.875,1.2695 0.559876,0.5469 1.061177,1.4583 1.503906,2.7344 0.781229,-1.2761 1.774066,-2.3405 2.978516,-3.1934 1.204402,-0.8528 2.581354,-1.2793 4.130859,-1.2793 1.510387,0 2.871063,0.4688 4.082031,1.4063 1.210905,0.9375 1.816373,2.5586 1.816407,4.8632 l 0,15.4297 -3.867188,0 0,-14.8242 c -3e-5,-1.4062 -0.296253,-2.3633 -0.888672,-2.8711 -0.592476,-0.5078 -1.253283,-0.7617 -1.982422,-0.7617 -0.911484,0 -1.858749,0.2832 -2.841797,0.8496 -0.983096,0.5664 -2.125673,1.696 -3.427734,3.3887 l 0,14.2187 -3.867187,0 0,-14.8242 c -1.7e-5,-1.4192 -0.299496,-2.3828 -0.898438,-2.8906 -0.598974,-0.5078 -1.276056,-0.7617 -2.03125,-0.7617 -0.924492,0 -1.858736,0.2799 -2.802734,0.8398 -0.944021,0.5599 -2.086598,1.6992 -3.427735,3.418 l 0,14.2187 z"
         style="font-variant:normal;font-stretch:normal;fill:#ff0000;font-family:Lucida Sans;-inkscape-font-specification:Lucida Sans"
         id="path3932" />
      <path
         d="m 65.287384,1859.5051 0,-21.2109 3.847656,0 0,21.2109 z m 0,-25.0586 0,-3.8476 3.847656,0 0,3.8476 z"
         style="font-variant:normal;font-stretch:normal;fill:#ff0000;font-family:Lucida Sans;-inkscape-font-specification:Lucida Sans"
         id="path3934" />
      <path
         d="m 76.849884,1859.5051 0,-21.2109 3.847656,0 0,3.9844 c 0.976554,-1.4193 2.112621,-2.5163 3.408203,-3.2911 1.295561,-0.7747 2.639961,-1.162 4.033204,-1.1621 1.796858,10e-5 3.255189,0.5697 4.375,1.709 1.119771,1.1394 1.679666,2.7181 1.679687,4.7364 l 0,15.2343 -3.847656,0 0,-13.9843 c -1.8e-5,-1.4714 -0.130226,-2.4414 -0.390625,-2.9102 -0.260434,-0.4687 -0.625017,-0.8301 -1.09375,-1.084 -0.468766,-0.2539 -0.970067,-0.3808 -1.503906,-0.3808 -0.950535,0 -1.975924,0.2929 -3.076172,0.8789 -1.100271,0.5859 -2.294931,1.8359 -3.583985,3.75 l 0,13.7304 z"
         style="font-variant:normal;font-stretch:normal;fill:#ff0000;font-family:Lucida Sans;-inkscape-font-specification:Lucida Sans"
         id="path3936" />
      <path
         d="m 101.77176,1866.5559 0.44922,-3.3398 c 2.22655,1.0546 4.42707,1.582 6.60156,1.582 2.43488,0 4.12433,-0.6218 5.06836,-1.8652 0.94399,-1.2435 1.416,-2.92 1.41602,-5.0293 l 0,-3.3399 c -0.55992,1.1719 -1.43231,2.2071 -2.61719,3.1055 -1.18491,0.8984 -2.63022,1.3476 -4.33594,1.3476 -2.90365,0 -5.01954,-1.0449 -6.34766,-3.1347 -1.32812,-2.0899 -1.99219,-4.4629 -1.99218,-7.1192 -10e-6,-2.0182 0.39062,-3.9029 1.17187,-5.6543 0.78125,-1.7512 1.86523,-3.0696 3.25195,-3.955 1.38672,-0.8854 2.972,-1.3281 4.75586,-1.3282 0.79426,10e-5 1.53319,0.091 2.2168,0.2735 0.68358,0.1823 1.3216,0.4557 1.91406,0.8203 0.59244,0.3646 1.25324,0.9636 1.98243,1.7969 l 0,-2.4219 3.86718,0 0,15.4297 c -2e-5,4.4922 -0.37437,7.5651 -1.12304,9.2187 -0.74872,1.6537 -1.9206,2.8581 -3.51563,3.6133 -1.59507,0.7552 -3.49285,1.1328 -5.69336,1.1328 -0.71615,0 -1.48764,-0.039 -2.31445,-0.1172 -0.82683,-0.078 -1.56251,-0.179 -2.20703,-0.3027 -0.64454,-0.1237 -1.49415,-0.3613 -2.54883,-0.7129 z m 13.53516,-14.3945 0,-8.8086 c -0.84638,-0.8854 -1.72854,-1.5462 -2.64649,-1.9824 -0.91798,-0.4362 -1.87827,-0.6543 -2.88086,-0.6543 -1.70574,0 -3.07618,0.6868 -4.11133,2.0605 -1.03516,1.3737 -1.55274,3.3627 -1.55273,5.9668 -1e-5,2.0443 0.38411,3.7077 1.15234,4.9902 0.76822,1.2826 2.01822,1.9239 3.75,1.9239 1.11978,0 2.20377,-0.293 3.25196,-0.8789 1.04816,-0.586 2.06053,-1.4584 3.03711,-2.6172 z"
         style="font-variant:normal;font-stretch:normal;fill:#ff0000;font-family:Lucida Sans;-inkscape-font-specification:Lucida Sans"
         id="path3938" />
    </g>
    <g
       style="font-size:40px;font-style:normal;font-weight:normal;line-height:125%;letter-spacing:0px;word-spacing:0px;fill:#000000;fill-opacity:1;stroke:none;font-family:Sans"
       id="text3860">
      <path
         d="m 582.25726,1419.1508 0,-3.5352 c 2.51302,1.25 4.70052,1.875 6.5625,1.875 1.09374,0 2.00846,-0.2995 2.74414,-0.8984 0.73567,-0.599 1.10351,-1.3477 1.10352,-2.2461 -10e-6,-0.5599 -0.18231,-1.1068 -0.54688,-1.6407 -0.36459,-0.5338 -1.20443,-1.0742 -2.51953,-1.621 l -2.24609,-0.9571 c -1.73178,-0.7161 -2.9948,-1.5494 -3.78906,-2.5 -0.79428,-0.9375 -1.19141,-2.0898 -1.19141,-3.457 0,-1.7057 0.61849,-3.125 1.85547,-4.2578 1.23697,-1.1328 3.0664,-1.6992 5.48828,-1.6992 1.18488,0 2.64973,0.1627 4.39453,0.4882 l 0.80078,0.1563 0,3.2031 c -2.14845,-0.638 -3.86069,-0.957 -5.13672,-0.957 -1.23698,0 -2.16146,0.2669 -2.77343,0.8008 -0.61199,0.5338 -0.91798,1.1653 -0.91797,1.8945 -10e-6,0.5729 0.20832,1.0872 0.625,1.543 0.40364,0.4687 1.1328,0.931 2.1875,1.3867 l 1.85547,0.7812 c 2.48696,1.0547 4.06899,2.0964 4.74609,3.125 0.67707,1.0287 1.01561,2.1485 1.01563,3.3594 -2e-5,1.1589 -0.31578,2.2331 -0.94727,3.2227 -0.63153,0.9895 -1.56251,1.7643 -2.79297,2.3242 -1.23048,0.5599 -2.60092,0.8398 -4.11133,0.8398 -1.75782,0 -3.89323,-0.4101 -6.40625,-1.2304 z"
         style="font-variant:normal;font-stretch:normal;text-align:end;text-anchor:end;fill:#000080;font-family:Lucida Sans;-inkscape-font-specification:Lucida Sans"
         id="path3941" />
      <path
         d="m 618.97601,1419.2094 c -2.57814,0.7812 -4.78517,1.1718 -6.62109,1.1718 -3.29428,0 -5.88542,-1.11 -7.77344,-3.3301 -1.88802,-2.22 -2.83203,-4.8404 -2.83203,-7.8613 0,-1.9922 0.41666,-3.8867 1.25,-5.6836 0.83333,-1.7968 1.92382,-3.1315 3.27149,-4.0039 1.34764,-0.8724 2.93293,-1.3086 4.75585,-1.3086 2.44791,0 4.40103,0.879 5.85938,2.6367 1.45831,1.7579 2.18748,4.3881 2.1875,7.8907 l -0.0195,1.1718 -13.37891,0 c 0.20833,1.8751 0.61197,3.3204 1.21094,4.336 0.59895,1.0156 1.39648,1.8066 2.39258,2.373 0.99608,0.5664 2.26236,0.8496 3.79883,0.8496 0.78123,0 1.55923,-0.068 2.33398,-0.205 0.77472,-0.1368 1.96287,-0.4981 3.56445,-1.084 z m -13.125,-12.2071 9.35547,0 c -1e-5,-2.1224 -0.41342,-3.6393 -1.24023,-4.5508 -0.82684,-0.9114 -1.88478,-1.3671 -3.17383,-1.3671 -1.47136,0 -2.62045,0.4915 -3.44727,1.4746 -0.82683,0.983 -1.32487,2.4642 -1.49414,4.4433 z"
         style="font-variant:normal;font-stretch:normal;text-align:end;text-anchor:end;fill:#000080;font-family:Lucida Sans;-inkscape-font-specification:Lucida Sans"
         id="path3943" />
      <path
         d="m 625.69476,1419.8929 0,-21.2109 3.84766,0 0,3.9844 c 0.78124,-1.237 1.78059,-2.2884 2.99805,-3.1543 1.21743,-0.8659 2.62694,-1.2988 4.22851,-1.2988 0.92447,0 1.73176,0.1497 2.42188,0.4492 0.69008,0.2995 1.31508,0.7227 1.875,1.2695 0.55987,0.5469 1.06117,1.4584 1.5039,2.7344 0.78123,-1.276 1.77407,-2.3405 2.97852,-3.1934 1.2044,-0.8528 2.58135,-1.2793 4.13086,-1.2793 1.51039,0 2.87106,0.4688 4.08203,1.4063 1.2109,0.9375 1.81637,2.5586 1.81641,4.8633 l 0,15.4296 -3.86719,0 0,-14.8242 c -3e-5,-1.4062 -0.29626,-2.3632 -0.88867,-2.8711 -0.59248,-0.5078 -1.25329,-0.7617 -1.98243,-0.7617 -0.91148,0 -1.85874,0.2832 -2.84179,0.8496 -0.9831,0.5664 -2.12568,1.696 -3.42774,3.3887 l 0,14.2187 -3.86718,0 0,-14.8242 c -2e-5,-1.4192 -0.2995,-2.3828 -0.89844,-2.8906 -0.59898,-0.5078 -1.27606,-0.7617 -2.03125,-0.7617 -0.92449,0 -1.85874,0.2799 -2.80274,0.8398 -0.94402,0.5599 -2.08659,1.6993 -3.42773,3.418 l 0,14.2187 z"
         style="font-variant:normal;font-stretch:normal;text-align:end;text-anchor:end;fill:#000080;font-family:Lucida Sans;-inkscape-font-specification:Lucida Sans"
         id="path3945" />
      <path
         d="m 673.97601,1417.1976 c -1.14584,1.0547 -2.2754,1.849 -3.38867,2.3828 -1.11329,0.5339 -2.20378,0.8008 -3.27148,0.8008 -1.49741,0 -2.89063,-0.4948 -4.17969,-1.4843 -1.28907,-0.9896 -1.9336,-2.4349 -1.93359,-4.336 -10e-6,-2.0833 0.89843,-3.8053 2.69531,-5.166 1.79687,-1.3607 4.66796,-2.041 8.61328,-2.041 l 0.89844,0 0,-2.5586 c -2e-5,-1.0156 -0.13674,-1.7546 -0.41016,-2.2168 -0.27345,-0.4622 -0.69988,-0.8236 -1.2793,-1.084 -0.57944,-0.2604 -1.29884,-0.3906 -2.1582,-0.3906 -1.9922,0 -4.16667,0.625 -6.52344,1.875 l 0,-3.1836 c 2.59114,-1.0547 5.03255,-1.582 7.32422,-1.582 1.24999,0 2.39908,0.1985 3.44727,0.5957 1.04816,0.3971 1.88475,1.0221 2.50976,1.875 0.62499,0.8528 0.93749,2.2233 0.9375,4.1113 l 0,9.6094 c -10e-6,1.0677 0.0846,1.7871 0.25391,2.1582 0.16925,0.3711 0.40688,0.6543 0.71289,0.8496 0.30597,0.1953 0.66079,0.2929 1.06445,0.2929 0.16925,0 0.41665,-0.026 0.74219,-0.078 l 0.27344,2.1289 c -0.87242,0.4167 -1.83596,0.625 -2.89063,0.625 -0.70314,0 -1.38022,-0.2278 -2.03125,-0.6836 -0.65105,-0.4557 -1.1198,-1.289 -1.40625,-2.5 z m -0.5664,-2.0898 0,-5.4883 -1.23047,-0.039 c -2.01824,10e-5 -3.71095,0.3907 -5.07813,1.1719 -1.36719,0.7813 -2.05078,1.8425 -2.05078,3.1836 0,0.9245 0.33528,1.7057 1.00586,2.3438 0.67057,0.638 1.45507,0.957 2.35352,0.957 0.80728,0 1.62759,-0.179 2.46093,-0.5371 0.83333,-0.3581 1.67968,-0.8887 2.53907,-1.5918 z"
         style="font-variant:normal;font-stretch:normal;text-align:end;text-anchor:end;fill:#000080;font-family:Lucida Sans;-inkscape-font-specification:Lucida Sans"
         id="path3947" />
      <path
         d="m 685.14789,1419.8929 0,-21.2109 3.84765,0 0,3.9844 c 0.97656,-1.4193 2.11262,-2.5163 3.40821,-3.291 1.29556,-0.7748 2.63996,-1.1621 4.0332,-1.1621 1.79686,0 3.25519,0.5696 4.375,1.7089 1.11977,1.1394 1.67967,2.7182 1.67969,4.7364 l 0,15.2343 -3.84766,0 0,-13.9843 c -2e-5,-1.4714 -0.13022,-2.4414 -0.39062,-2.9102 -0.26044,-0.4687 -0.62502,-0.83 -1.09375,-1.084 -0.46877,-0.2539 -0.97007,-0.3808 -1.50391,-0.3808 -0.95053,0 -1.97592,0.293 -3.07617,0.8789 -1.10027,0.5859 -2.29493,1.8359 -3.58399,3.75 l 0,13.7304 z"
         style="font-variant:normal;font-stretch:normal;text-align:end;text-anchor:end;fill:#000080;font-family:Lucida Sans;-inkscape-font-specification:Lucida Sans"
         id="path3949" />
      <path
         d="m 719.44476,1419.8929 c -1.1849,0.3256 -2.21355,0.4883 -3.08593,0.4883 -1.90105,0 -3.41147,-0.5501 -4.53125,-1.6504 -1.1198,-1.1002 -1.6797,-2.666 -1.67969,-4.6972 l 0,-12.461 -2.65625,0 0,-2.8906 2.65625,0 0,-3.8476 3.84765,-0.3711 0,4.2187 5.54688,0 0,2.8906 -5.54688,0 0,11.7578 c 0,1.4844 0.28645,2.5489 0.85938,3.1934 0.57291,0.6445 1.48436,0.9668 2.73437,0.9668 0.5078,0 1.12629,-0.085 1.85547,-0.2539 z"
         style="font-variant:normal;font-stretch:normal;text-align:end;text-anchor:end;fill:#000080;font-family:Lucida Sans;-inkscape-font-specification:Lucida Sans"
         id="path3951" />
      <path
         d="m 724.99164,1419.8929 0,-21.2109 3.84765,0 0,21.2109 z m 0,-25.0585 0,-3.8477 3.84765,0 0,3.8477 z"
         style="font-variant:normal;font-stretch:normal;text-align:end;text-anchor:end;fill:#000080;font-family:Lucida Sans;-inkscape-font-specification:Lucida Sans"
         id="path3953" />
      <path
         d="m 751.2807,1419.2484 c -2.48699,0.7552 -4.63543,1.1328 -6.44531,1.1328 -1.88803,0 -3.6198,-0.511 -5.19531,-1.5332 -1.57553,-1.0221 -2.76368,-2.3665 -3.56446,-4.0332 -0.80078,-1.6666 -1.20117,-3.5481 -1.20117,-5.6445 0,-3.125 0.86588,-5.7324 2.59766,-7.8223 1.73176,-2.0898 4.40754,-3.1347 8.02734,-3.1347 1.66665,0 3.51561,0.2278 5.54688,0.6836 l 0,3.2226 c -2.1745,-0.638 -3.94533,-0.957 -5.3125,-0.957 -2.16147,0 -3.78908,0.804 -4.88282,2.4121 -1.09375,1.6081 -1.64063,3.5124 -1.64062,5.7129 -10e-6,2.3828 0.61523,4.3099 1.8457,5.7812 1.23046,1.4714 2.82877,2.2071 4.79492,2.2071 1.7578,0 3.56769,-0.4493 5.42969,-1.3477 z"
         style="font-variant:normal;font-stretch:normal;text-align:end;text-anchor:end;fill:#000080;font-family:Lucida Sans;-inkscape-font-specification:Lucida Sans"
         id="path3955" />
      <path
         d="m 607.80414,1469.8929 0,-21.2109 3.84765,0 0,3.9844 c 0.78125,-1.237 1.78059,-2.2884 2.99805,-3.1543 1.21744,-0.8659 2.62694,-1.2988 4.22852,-1.2988 0.92446,0 1.73175,0.1497 2.42187,0.4492 0.69009,0.2995 1.31509,0.7227 1.875,1.2695 0.55988,0.5469 1.06118,1.4584 1.50391,2.7344 0.78123,-1.276 1.77406,-2.3405 2.97851,-3.1934 1.20441,-0.8528 2.58136,-1.2793 4.13086,-1.2793 1.51039,0 2.87107,0.4688 4.08203,1.4063 1.21091,0.9375 1.81638,2.5586 1.81641,4.8633 l 0,15.4296 -3.86719,0 0,-14.8242 c -3e-5,-1.4062 -0.29625,-2.3632 -0.88867,-2.8711 -0.59247,-0.5078 -1.25328,-0.7617 -1.98242,-0.7617 -0.91148,0 -1.85875,0.2832 -2.8418,0.8496 -0.98309,0.5664 -2.12567,1.696 -3.42773,3.3887 l 0,14.2187 -3.86719,0 0,-14.8242 c -2e-5,-1.4192 -0.2995,-2.3828 -0.89844,-2.8906 -0.59897,-0.5078 -1.27605,-0.7617 -2.03125,-0.7617 -0.92449,0 -1.85873,0.2799 -2.80273,0.8398 -0.94402,0.5599 -2.0866,1.6993 -3.42774,3.418 l 0,14.2187 z"
         style="font-variant:normal;font-stretch:normal;text-align:end;text-anchor:end;fill:#000080;font-family:Lucida Sans;-inkscape-font-specification:Lucida Sans"
         id="path3957" />
      <path
         d="m 656.08539,1467.1976 c -1.14585,1.0547 -2.2754,1.849 -3.38867,2.3828 -1.1133,0.5339 -2.20379,0.8008 -3.27149,0.8008 -1.4974,0 -2.89063,-0.4948 -4.17969,-1.4843 -1.28906,-0.9896 -1.93359,-2.4349 -1.93359,-4.336 0,-2.0833 0.89844,-3.8053 2.69531,-5.166 1.79687,-1.3607 4.66796,-2.041 8.61328,-2.041 l 0.89844,0 0,-2.5586 c -1e-5,-1.0156 -0.13673,-1.7546 -0.41015,-2.2168 -0.27346,-0.4622 -0.69989,-0.8236 -1.2793,-1.084 -0.57944,-0.2604 -1.29884,-0.3906 -2.1582,-0.3906 -1.9922,0 -4.16668,0.625 -6.52344,1.875 l 0,-3.1836 c 2.59114,-1.0547 5.03254,-1.582 7.32422,-1.582 1.24998,0 2.39907,0.1985 3.44726,0.5957 1.04816,0.3971 1.88475,1.0221 2.50977,1.875 0.62498,0.8528 0.93748,2.2233 0.9375,4.1113 l 0,9.6094 c -2e-5,1.0677 0.0846,1.7871 0.2539,2.1582 0.16926,0.3711 0.40689,0.6543 0.7129,0.8496 0.30597,0.1953 0.66078,0.2929 1.06445,0.2929 0.16925,0 0.41664,-0.026 0.74219,-0.078 l 0.27343,2.1289 c -0.87241,0.4167 -1.83595,0.625 -2.89062,0.625 -0.70314,0 -1.38023,-0.2278 -2.03125,-0.6836 -0.65106,-0.4557 -1.11981,-1.289 -1.40625,-2.5 z m -0.56641,-2.0898 0,-5.4883 -1.23047,-0.039 c -2.01824,10e-5 -3.71094,0.3907 -5.07812,1.1719 -1.3672,0.7813 -2.05079,1.8425 -2.05078,3.1836 -1e-5,0.9245 0.33528,1.7057 1.00586,2.3438 0.67056,0.638 1.45507,0.957 2.35351,0.957 0.80728,0 1.6276,-0.179 2.46094,-0.5371 0.83332,-0.3581 1.67967,-0.8887 2.53906,-1.5918 z"
         style="font-variant:normal;font-stretch:normal;text-align:end;text-anchor:end;fill:#000080;font-family:Lucida Sans;-inkscape-font-specification:Lucida Sans"
         id="path3959" />
      <path
         d="m 667.25726,1469.8929 0,-21.2109 3.84766,0 0,3.9844 c 0.72916,-1.4193 1.67642,-2.5163 2.8418,-3.291 1.16535,-0.7748 2.43162,-1.1621 3.79882,-1.1621 0.39061,0 0.80077,0.033 1.23047,0.098 l 0,3.5938 c -0.65105,-0.2214 -1.23699,-0.332 -1.75781,-0.3321 -1.21095,10e-5 -2.32748,0.3614 -3.34961,1.084 -1.02214,0.7227 -1.94337,1.8067 -2.76367,3.252 l 0,13.9843 z"
         style="font-variant:normal;font-stretch:normal;text-align:end;text-anchor:end;fill:#000080;font-family:Lucida Sans;-inkscape-font-specification:Lucida Sans"
         id="path3961" />
      <path
         d="m 683.66351,1469.8929 0,-30.8398 3.84766,0 0,19.9219 8.98437,-10.293 4.14063,0 -8.57422,9.9024 10.35156,11.3085 -4.92187,0 -9.98047,-10.8789 0,10.8789 z"
         style="font-variant:normal;font-stretch:normal;text-align:end;text-anchor:end;fill:#000080;font-family:Lucida Sans;-inkscape-font-specification:Lucida Sans"
         id="path3963" />
      <path
         d="m 720.28461,1469.8929 0,-3.9843 c -0.9896,1.4323 -2.12892,2.5358 -3.41797,3.3105 -1.28908,0.7748 -2.63022,1.1621 -4.02344,1.1621 -1.78386,0 -3.23894,-0.5696 -4.36523,-1.709 -1.12631,-1.1393 -1.68946,-2.7246 -1.68946,-4.7558 l 0,-15.2344 3.84766,0 0,13.9844 c -10e-6,1.4713 0.1302,2.4414 0.39062,2.9101 0.26041,0.4688 0.625,0.8334 1.09375,1.0938 0.46875,0.2604 0.97656,0.3906 1.52344,0.3906 0.93749,0 1.95637,-0.293 3.05664,-0.8789 1.10025,-0.5859 2.29491,-1.8359 3.58399,-3.75 l 0,-13.75 3.84765,0 0,21.2109 z"
         style="font-variant:normal;font-stretch:normal;text-align:end;text-anchor:end;fill:#000080;font-family:Lucida Sans;-inkscape-font-specification:Lucida Sans"
         id="path3965" />
      <path
         d="m 731.86664,1477.6078 0,-28.9258 3.84765,0 0,3.9844 c 0.79427,-1.4844 1.78059,-2.5977 2.95899,-3.3399 1.17837,-0.7421 2.55532,-1.1132 4.13086,-1.1132 2.61717,0 4.64191,0.9635 6.07422,2.8906 1.43227,1.9271 2.14841,4.4401 2.14843,7.539 -2e-5,2.0183 -0.33205,3.9389 -0.99609,5.7618 -0.66408,1.8229 -1.69598,3.2747 -3.0957,4.3554 -1.39976,1.0808 -2.98504,1.6211 -4.75586,1.6211 -0.70314,0 -1.63087,-0.1041 -2.7832,-0.3125 -1.15236,-0.2083 -2.37957,-1.0677 -3.68165,-2.5781 l 0,10.1172 z m 3.84765,-12.7734 c 1.3151,1.1718 2.36328,1.9075 3.14454,2.207 0.78123,0.2995 1.62108,0.4492 2.51953,0.4492 1.888,0 3.28449,-0.7943 4.18945,-2.3828 0.90493,-1.5885 1.3574,-3.6133 1.35742,-6.0742 -2e-5,-2.2917 -0.40041,-4.1081 -1.20117,-5.4492 -0.8008,-1.3412 -2.04103,-2.0117 -3.7207,-2.0118 -1.06772,10e-5 -2.12567,0.2898 -3.17383,0.8692 -1.04819,0.5794 -2.0866,1.4551 -3.11524,2.6269 z"
         style="font-variant:normal;font-stretch:normal;text-align:end;text-anchor:end;fill:#000080;font-family:Lucida Sans;-inkscape-font-specification:Lucida Sans"
         id="path3967" />
    </g>
  </g>
</svg>
